<svg class="img-fluid" id="outputsvg" xmlns="http://www.w3.org/2000/svg" style="transform: matrix(1.32068, 0, 0, 1.32068, 1.1804, 94.0131); transform-origin: 50% 50% 0px; cursor: move; max-height: none; transition: transform 200ms ease-in-out 0s;" width="4096" height="1224" viewBox="0 0 40960 12240"><g id="l2bKCn8klqek0zG3BpjUWqx" fill="rgb(0,0,0)" style="transform: none;"><g style="transform: none;"><path id="pMdeh5Szx" d="M20940 8998 c-118 -90 -295 -253 -525 -483 -522 -522 -1188 -1283 -1725 -1971 l-95 -121 -44 61 c-309 424 -1241 1940 -1241 2019 0 15 119 38 400 78 85 12 158 25 162 28 4 4 14 37 21 74 l15 67 -47 0 c-25 0 -212 -7 -416 -16 -417 -18 -993 -21 -1194 -5 -74 6 -136 9 -138 8 -2 -2 7 -36 19 -75 l21 -72 46 0 c76 0 327 -56 389 -86 107 -52 331 -295 648 -704 254 -327 858 -1123 1131 -1492 l72 -97 -61 -73 c-54 -64 -336 -440 -1002 -1333 -370 -497 -582 -760 -625 -777 -34 -13 -210 -52 -332 -73 l-96 -16 -11 -50 c-7 -28 -12 -56 -12 -62 0 -14 0 -14 533 11 376 18 374 18 1485 -21 107 -4 142 -2 142 7 0 7 -7 35 -15 63 l-15 50 -115 16 c-211 30 -475 80 -475 90 0 15 172 281 390 602 256 377 602 885 653 957 l40 56 37 -47 c148 -187 462 -627 633 -886 208 -317 418 -677 400 -688 -9 -6 -277 -58 -394 -77 -42 -7 -82 -16 -89 -20 -10 -6 -44 -121 -37 -125 1 -1 144 3 317 8 376 12 716 12 1055 0 138 -5 251 -9 252 -9 4 3 -14 116 -18 121 -3 2 -93 25 -200 50 -107 25 -209 52 -227 62 -62 32 -335 328 -738 803 -406 477 -691 826 -788 963 l-48 67 64 88 c36 48 152 206 259 352 107 146 257 355 334 465 236 340 870 1238 1044 1480 345 480 498 702 490 709 -2 2 -56 15 -119 30 -63 15 -124 29 -135 31 -13 4 -39 -9 -75 -37z"></path><path id="piDNMrs4r" d="M38441 8919 c-246 -152 -815 -702 -1496 -1444 -179 -194 -719 -799 -900 -1006 l-40 -46 -130 13 c-72 7 -223 16 -337 20 l-208 7 0 331 c0 581 33 1692 50 1709 13 14 209 44 470 73 135 15 250 31 256 36 7 5 15 29 19 55 4 25 9 52 12 61 6 13 -3 14 -63 8 -38 -3 -260 -11 -494 -16 -422 -10 -980 -3 -1559 20 -140 6 -255 9 -257 8 -1 -2 2 -28 7 -58 18 -107 3 -96 141 -103 112 -6 501 -57 573 -75 23 -6 31 -15 37 -43 19 -89 30 -1379 24 -2669 -7 -1355 -14 -1742 -31 -1759 -12 -10 -277 -44 -547 -70 -103 -9 -189 -19 -191 -22 -2 -2 -7 -29 -11 -60 l-6 -57 178 -8 c304 -14 2155 -11 2327 4 473 40 784 111 1041 237 296 144 462 348 510 626 44 253 -56 534 -295 834 -157 198 -430 445 -603 548 l-87 51 31 56 c262 462 905 1431 1362 2050 149 203 352 453 454 561 l92 97 -118 21 c-64 12 -130 24 -147 27 -20 3 -41 -2 -64 -17z m-2839 -2679 c289 -28 559 -100 803 -216 151 -71 300 -198 389 -333 166 -249 242 -616 178 -854 -55 -202 -227 -443 -408 -573 -138 -99 -356 -181 -589 -223 -201 -36 -602 -61 -610 -39 -4 13 -20 938 -32 1786 l-6 462 84 0 c46 0 132 -5 191 -10z"></path><path id="pieEHLPEC" d="M24444 8727 c3 -15 9 -47 13 -72 4 -35 10 -46 27 -50 11 -3 144 -25 293 -49 150 -25 277 -48 283 -51 64 -40 552 -1272 1476 -3729 151 -400 274 -732 274 -736 0 -24 -197 -66 -428 -91 -125 -14 -116 -6 -125 -103 l-5 -48 127 6 c69 3 225 12 346 18 368 20 1130 11 1536 -18 l85 -6 -7 66 c-3 37 -8 68 -10 70 -2 2 -104 20 -227 40 -221 37 -298 56 -296 72 5 31 188 590 294 899 380 1100 859 2375 1150 3056 97 226 220 478 243 497 14 12 205 45 457 78 74 10 137 19 139 21 5 4 30 137 27 141 -2 1 -266 -4 -587 -12 -568 -14 -1619 -8 -1713 10 l-35 6 19 -68 c11 -38 20 -72 20 -76 0 -5 30 -8 68 -8 79 0 292 -23 412 -45 47 -8 114 -20 150 -26 36 -6 69 -15 73 -19 19 -17 -519 -1552 -684 -1949 l-41 -101 -147 0 c-266 0 -860 28 -1281 60 -219 17 -193 3 -235 132 -56 171 -125 431 -250 928 -127 509 -198 839 -193 896 l3 39 79 22 c122 35 240 54 377 60 l125 6 18 69 c10 38 16 71 14 74 -3 2 -67 -2 -144 -8 -190 -16 -1377 -16 -1539 0 -67 6 -136 15 -154 18 -33 7 -34 6 -27 -19z m3291 -2509 c-17 -76 -378 -1144 -545 -1608 -48 -135 -104 -293 -125 -353 -21 -59 -41 -107 -45 -107 -4 0 -16 19 -25 43 -26 64 -536 1462 -683 1872 -28 77 -47 143 -44 147 4 3 291 12 637 18 347 7 632 14 634 16 2 2 49 4 103 4 l100 0 -7 -32z"></path><path id="p143LklcWu" d="M1852 8669 c11 -41 21 -74 22 -75 0 0 95 -10 211 -23 199 -21 455 -54 501 -66 l22 -5 5 -452 c2 -249 10 -839 18 -1310 11 -712 11 -998 0 -1685 -8 -456 -17 -871 -20 -923 l-6 -95 -110 -22 c-135 -27 -300 -49 -487 -65 -79 -6 -144 -12 -145 -13 -1 -1 -9 -32 -17 -69 l-14 -67 1102 4 c1151 4 1220 7 1533 52 748 109 1133 355 1249 795 52 198 31 513 -48 740 -70 199 -175 360 -347 530 -332 331 -817 573 -1378 690 l-135 28 6 -41 c4 -23 10 -61 13 -83 l5 -42 87 -22 c322 -85 583 -245 726 -445 117 -165 233 -473 265 -705 15 -112 13 -308 -4 -405 -46 -256 -152 -453 -317 -594 -258 -219 -497 -298 -925 -308 l-221 -5 -7 363 c-3 200 -11 627 -17 949 -15 783 -15 1691 -1 2035 6 154 15 479 18 722 5 305 10 443 18 446 6 2 206 24 444 48 l433 44 19 66 c11 36 20 70 20 74 0 4 -40 5 -89 1 -203 -15 -1349 -25 -1820 -16 -267 5 -518 13 -558 16 l-72 7 21 -74z"></path><path id="pPkGZTHAg" d="M9925 8680 c7 -35 18 -66 25 -70 7 -4 46 -10 89 -14 70 -6 496 -66 601 -84 l45 -7 6 -100 c4 -55 12 -502 19 -992 11 -856 3 -2422 -17 -3136 l-6 -227 -38 -10 c-44 -12 -366 -61 -560 -86 l-136 -17 -21 -63 -20 -64 131 5 c293 12 1150 36 1287 36 145 0 852 -27 943 -36 36 -3 48 -1 44 8 -2 7 -12 38 -21 69 -15 52 -19 58 -49 63 -17 3 -182 25 -366 49 -207 27 -336 48 -341 56 -24 38 -56 2172 -35 2365 2 28 10 466 16 975 6 509 14 965 18 1015 l6 90 70 13 c53 9 644 92 660 92 2 0 11 24 20 53 9 28 19 58 21 66 3 10 -5 12 -42 6 -145 -21 -2250 -22 -2335 0 l-27 7 13 -62z"></path></g></g></svg>